# xmcd
#
# Track frame offsets: 
#        150
#        14162
#        28637
#        43752
#        56640
#        76472
#        88227
#        103735
#        117287
#        136957
#        152820
#        164432
#        179252
#        191267
#        205232
#
# Disc length: 2925 seconds
#
# Revision: 0
# Processed by: cddbd v1.5.2PL0 Copyright (c) Steve Scherf et al.
# Submitted via: ExactAudioCopy v0.99pb5
#
DISCID=cf0b6b0f
DTITLE=Aguilé, Luis - Mis Mejores 30 Canciones, Vol.2
DYEAR=1997
DGENRE=Latin
TTITLE0=Cartas De Amor
TTITLE1=Mo Corazón
TTITLE2=Oye
TTITLE3=En El Amor
TTITLE4=Tiritando
TTITLE5=Embustero Y Bailarín
TTITLE6=Cuando Vuelva A Cuba
TTITLE7=Regresa A Mí
TTITLE8=El Gran Romántico
TTITLE9=Soy Laburante
TTITLE10=El Frescales
TTITLE11=Con Amor O Sin Amor
TTITLE12=El Tío Calambres
TTITLE13=Diablo
TTITLE14=Amor De Flacos
EXTD=
EXTT0=
EXTT1=
EXTT2=
EXTT3=
EXTT4=
EXTT5=
EXTT6=
EXTT7=
EXTT8=
EXTT9=
EXTT10=
EXTT11=
EXTT12=
EXTT13=
EXTT14=
PLAYORDER=
